<svg width="123" height="41" viewBox="0 0 123 41" fill="none" xmlns="http://www.w3.org/2000/svg">
<path d="M0 8H93V39H0V8Z" fill="#01200B"/>
<g style="mix-blend-mode:luminosity" filter="url(#filter0_dddd_9_37)">
<path d="M7.38822 27.3582C6.87185 27.1623 6.29444 27.4221 6.09855 27.9385C5.90266 28.4549 6.16247 29.0323 6.67884 29.2282L7.38822 27.3582ZM6.67884 29.2282C22.3423 35.1702 32.3012 31.8678 42.6674 29.1519C47.8343 27.7982 53.086 26.5925 59.2738 26.6687C65.4538 26.7449 72.6211 28.1018 81.577 31.9512L82.3668 30.1138C73.2011 26.1742 65.7745 24.7487 59.2984 24.6689C52.8301 24.5892 47.3636 25.854 42.1605 27.2172C31.7865 29.9352 22.3978 33.0521 7.38822 27.3582L6.67884 29.2282Z" fill="#FFF2F2" fill-opacity="0.8"/>
</g>
<g style="mix-blend-mode:luminosity">
<path d="M7.04 12.6C7.832 12.6 8.544 12.72 9.176 12.96C9.808 13.2 10.308 13.556 10.676 14.028C11.052 14.492 11.24 15.06 11.24 15.732H8.708C8.708 15.388 8.556 15.112 8.252 14.904C7.948 14.688 7.58 14.58 7.148 14.58C6.524 14.58 6.052 14.748 5.732 15.084C5.412 15.412 5.252 15.88 5.252 16.488V17.256C5.252 17.864 5.412 18.336 5.732 18.672C6.052 19 6.524 19.164 7.148 19.164C7.58 19.164 7.948 19.064 8.252 18.864C8.556 18.656 8.708 18.392 8.708 18.072H6.836V16.392H11.24V21H9.872L9.608 20.184C8.856 20.824 7.872 21.144 6.656 21.144C5.288 21.144 4.26 20.788 3.572 20.076C2.884 19.356 2.54 18.288 2.54 16.872C2.54 15.472 2.928 14.412 3.704 13.692C4.488 12.964 5.6 12.6 7.04 12.6ZM20.7201 15.276C20.7201 15.78 20.5841 16.236 20.3121 16.644C20.0401 17.052 19.6441 17.352 19.1241 17.544L20.9601 21H17.9841L16.5201 17.988H15.5361V21H12.8841V12.744H17.9361C18.5281 12.744 19.0321 12.86 19.4481 13.092C19.8721 13.316 20.1881 13.624 20.3961 14.016C20.6121 14.4 20.7201 14.82 20.7201 15.276ZM18.0201 15.384C18.0201 15.168 17.9481 14.988 17.8041 14.844C17.6601 14.7 17.4841 14.628 17.2761 14.628H15.5361V16.152H17.2761C17.4841 16.152 17.6601 16.08 17.8041 15.936C17.9481 15.784 18.0201 15.6 18.0201 15.384ZM27.7559 21L27.4079 19.836H24.5159L24.1679 21H21.4559L24.4679 12.744H27.5519L30.5639 21H27.7559ZM25.0679 17.988H26.8559L25.9919 15.048H25.9439L25.0679 17.988ZM31.5638 12.744H38.2358V14.724H34.2158V16.14H37.6718V18.036H34.2158V21H31.5638V12.744ZM39.6877 21V12.744H42.3397V21H39.6877ZM47.8078 12.744C50.6958 12.744 52.1398 14.12 52.1398 16.872C52.1398 19.624 50.6958 21 47.8078 21H44.2318V12.744H47.8078ZM46.8838 19.02H47.7598C48.8718 19.02 49.4278 18.424 49.4278 17.232V16.512C49.4278 15.32 48.8718 14.724 47.7598 14.724H46.8838V19.02ZM57.6756 12.6C59.0996 12.6 60.1996 12.964 60.9756 13.692C61.7516 14.42 62.1396 15.48 62.1396 16.872C62.1396 18.264 61.7516 19.324 60.9756 20.052C60.1996 20.78 59.0996 21.144 57.6756 21.144C56.2516 21.144 55.1516 20.784 54.3756 20.064C53.6076 19.336 53.2236 18.272 53.2236 16.872C53.2236 15.472 53.6076 14.412 54.3756 13.692C55.1516 12.964 56.2516 12.6 57.6756 12.6ZM57.6756 14.58C57.1076 14.58 56.6756 14.752 56.3796 15.096C56.0836 15.44 55.9356 15.904 55.9356 16.488V17.256C55.9356 17.84 56.0836 18.304 56.3796 18.648C56.6756 18.992 57.1076 19.164 57.6756 19.164C58.2436 19.164 58.6756 18.992 58.9716 18.648C59.2756 18.304 59.4276 17.84 59.4276 17.256V16.488C59.4276 15.904 59.2756 15.44 58.9716 15.096C58.6756 14.752 58.2436 14.58 57.6756 14.58ZM63.5677 12.744H66.2197V18.888H70.4557V21H63.5677V12.744ZM77.1036 21L76.7556 19.836H73.8636L73.5156 21H70.8036L73.8156 12.744H76.8996L79.9116 21H77.1036ZM74.4156 17.988H76.2036L75.3396 15.048H75.2916L74.4156 17.988ZM88.7474 15.276C88.7474 15.78 88.6114 16.236 88.3394 16.644C88.0674 17.052 87.6714 17.352 87.1514 17.544L88.9874 21H86.0114L84.5474 17.988H83.5634V21H80.9114V12.744H85.9634C86.5554 12.744 87.0594 12.86 87.4754 13.092C87.8994 13.316 88.2154 13.624 88.4234 14.016C88.6394 14.4 88.7474 14.82 88.7474 15.276ZM86.0474 15.384C86.0474 15.168 85.9754 14.988 85.8314 14.844C85.6874 14.7 85.5114 14.628 85.3034 14.628H83.5634V16.152H85.3034C85.5114 16.152 85.6874 16.08 85.8314 15.936C85.9754 15.784 86.0474 15.6 86.0474 15.384Z" fill="white"/>
</g>
<defs>
<filter id="filter0_dddd_9_37" x="2.03326" y="24.6653" width="84.3335" height="15.8872" filterUnits="userSpaceOnUse" color-interpolation-filters="sRGB">
<feFlood flood-opacity="0" result="BackgroundImageFix"/>
<feColorMatrix in="SourceAlpha" type="matrix" values="0 0 0 0 0 0 0 0 0 0 0 0 0 0 0 0 0 0 127 0" result="hardAlpha"/>
<feOffset dy="4"/>
<feGaussianBlur stdDeviation="2"/>
<feComposite in2="hardAlpha" operator="out"/>
<feColorMatrix type="matrix" values="0 0 0 0 0 0 0 0 0 0 0 0 0 0 0 0 0 0 0.25 0"/>
<feBlend mode="normal" in2="BackgroundImageFix" result="effect1_dropShadow_9_37"/>
<feColorMatrix in="SourceAlpha" type="matrix" values="0 0 0 0 0 0 0 0 0 0 0 0 0 0 0 0 0 0 127 0" result="hardAlpha"/>
<feOffset dy="4"/>
<feGaussianBlur stdDeviation="2"/>
<feComposite in2="hardAlpha" operator="out"/>
<feColorMatrix type="matrix" values="0 0 0 0 0 0 0 0 0 0 0 0 0 0 0 0 0 0 0.25 0"/>
<feBlend mode="normal" in2="effect1_dropShadow_9_37" result="effect2_dropShadow_9_37"/>
<feColorMatrix in="SourceAlpha" type="matrix" values="0 0 0 0 0 0 0 0 0 0 0 0 0 0 0 0 0 0 127 0" result="hardAlpha"/>
<feOffset dy="4"/>
<feGaussianBlur stdDeviation="2"/>
<feComposite in2="hardAlpha" operator="out"/>
<feColorMatrix type="matrix" values="0 0 0 0 0 0 0 0 0 0 0 0 0 0 0 0 0 0 0.25 0"/>
<feBlend mode="normal" in2="effect2_dropShadow_9_37" result="effect3_dropShadow_9_37"/>
<feColorMatrix in="SourceAlpha" type="matrix" values="0 0 0 0 0 0 0 0 0 0 0 0 0 0 0 0 0 0 127 0" result="hardAlpha"/>
<feOffset dy="4"/>
<feGaussianBlur stdDeviation="2"/>
<feComposite in2="hardAlpha" operator="out"/>
<feColorMatrix type="matrix" values="0 0 0 0 0 0 0 0 0 0 0 0 0 0 0 0 0 0 0.25 0"/>
<feBlend mode="normal" in2="effect3_dropShadow_9_37" result="effect4_dropShadow_9_37"/>
<feBlend mode="normal" in="SourceGraphic" in2="effect4_dropShadow_9_37" result="shape"/>
</filter>
</defs>
</svg>
