<svg width="104" height="60" viewBox="0 0 104 60" fill="none" xmlns="http://www.w3.org/2000/svg">
<path d="M0 0H104V60H0V0Z" fill="#01200B"/>
<g style="mix-blend-mode:luminosity" filter="url(#filter0_dddd_9_37)">
<path d="M11.3625 42.7767C10.6236 42.4029 9.72097 42.6992 9.34652 43.4385C8.97207 44.1778 9.26755 45.0802 10.0065 45.454L11.3625 42.7767ZM10.0065 45.454C18.7831 49.8936 26.0128 50.9689 32.5621 50.389C39.0359 49.8157 44.7939 47.6171 50.4597 45.7077C56.1765 43.7812 61.9085 42.101 68.6611 42.2671C75.3963 42.4327 83.2732 44.4419 93.2011 50.1185L94.6919 47.5138C84.4201 41.6404 76.0615 39.448 68.7376 39.2679C61.4312 39.0882 55.2807 40.9181 49.504 42.8648C43.6763 44.8288 38.3296 46.8667 32.3002 47.4006C26.3462 47.9278 19.6741 46.9811 11.3625 42.7767L10.0065 45.454Z" fill="#FFF2F2" fill-opacity="0.8"/>
</g>
<g style="mix-blend-mode:luminosity" filter="url(#filter1_dd_9_37)">
<path d="M11.24 36.6C10.4 36.6 9.56667 36.4733 8.74 36.22C7.92667 35.98 7.26 35.66 6.74 35.26L7.76 33.18C8.04 33.38 8.34667 33.5533 8.68 33.7C9.02667 33.8467 9.38667 33.9533 9.76 34.02C10.1467 34.1 10.54 34.14 10.94 34.14C11.62 34.14 12.1867 34.0333 12.64 33.82C13.0933 33.62 13.4267 33.3067 13.64 32.88C13.8667 32.4667 13.98 31.94 13.98 31.3V29.46L14.48 29.58C14.4 30.0067 14.1733 30.4067 13.8 30.78C13.44 31.14 12.9867 31.4333 12.44 31.66C11.9067 31.8733 11.3467 31.98 10.76 31.98C9.78667 31.98 8.92 31.7533 8.16 31.3C7.41333 30.8467 6.82 30.2267 6.38 29.44C5.94 28.64 5.72 27.7133 5.72 26.66C5.72 25.5933 5.93333 24.6533 6.36 23.84C6.8 23.0133 7.39333 22.3667 8.14 21.9C8.88667 21.4333 9.74 21.2 10.7 21.2C11.1 21.2 11.48 21.2467 11.84 21.34C12.2133 21.42 12.5533 21.5467 12.86 21.72C13.18 21.88 13.46 22.0667 13.7 22.28C13.9533 22.48 14.16 22.7 14.32 22.94C14.48 23.18 14.58 23.42 14.62 23.66L14.02 23.84L14.12 21.42H16.9V31.18C16.9 32.0467 16.7667 32.8133 16.5 33.48C16.2467 34.16 15.8733 34.7267 15.38 35.18C14.9 35.6467 14.3067 36 13.6 36.24C12.9067 36.48 12.12 36.6 11.24 36.6ZM11.34 29.66C11.8867 29.66 12.3667 29.54 12.78 29.3C13.1933 29.0467 13.5067 28.7 13.72 28.26C13.9467 27.8067 14.06 27.28 14.06 26.68C14.06 26.08 13.9467 25.5533 13.72 25.1C13.4933 24.6467 13.1733 24.3 12.76 24.06C12.36 23.8067 11.8867 23.68 11.34 23.68C10.7933 23.68 10.3133 23.8067 9.9 24.06C9.5 24.3133 9.18667 24.6667 8.96 25.12C8.73333 25.5733 8.62 26.0933 8.62 26.68C8.62 27.2667 8.73333 27.7867 8.96 28.24C9.18667 28.6933 9.5 29.0467 9.9 29.3C10.3133 29.54 10.7933 29.66 11.34 29.66ZM18.7013 32V21.42H21.5013L21.6013 24.82L21.1013 24.12C21.2613 23.5733 21.5213 23.08 21.8813 22.64C22.2413 22.1867 22.6679 21.8333 23.1612 21.58C23.6546 21.3267 24.1679 21.2 24.7013 21.2C24.9279 21.2 25.1479 21.22 25.3613 21.26C25.5746 21.2867 25.7546 21.3267 25.9013 21.38L25.1213 24.58C24.9746 24.5133 24.7813 24.4467 24.5413 24.38C24.3146 24.3133 24.0746 24.28 23.8213 24.28C23.5146 24.28 23.2279 24.34 22.9613 24.46C22.6946 24.5667 22.4613 24.7267 22.2613 24.94C22.0613 25.14 21.9013 25.38 21.7813 25.66C21.6746 25.9267 21.6213 26.2267 21.6213 26.56V32H18.7013ZM30.0202 32.2C29.1535 32.2 28.3668 31.96 27.6602 31.48C26.9535 31 26.3935 30.3467 25.9802 29.52C25.5668 28.6933 25.3602 27.7467 25.3602 26.68C25.3602 25.6133 25.5668 24.6667 25.9802 23.84C26.3935 23.0133 26.9602 22.3667 27.6802 21.9C28.4002 21.4333 29.2202 21.2 30.1402 21.2C30.6602 21.2 31.1335 21.2733 31.5602 21.42C32.0002 21.5667 32.3802 21.7733 32.7002 22.04C33.0335 22.3067 33.3068 22.6133 33.5202 22.96C33.7468 23.3067 33.9135 23.68 34.0202 24.08L33.4002 23.98V21.42H36.2802V32H33.3602V29.44L34.0202 29.4C33.9135 29.7733 33.7402 30.1333 33.5002 30.48C33.2602 30.8133 32.9602 31.1067 32.6002 31.36C32.2535 31.6133 31.8602 31.82 31.4202 31.98C30.9935 32.1267 30.5268 32.2 30.0202 32.2ZM30.8402 29.7C31.3602 29.7 31.8135 29.5733 32.2002 29.32C32.6002 29.0667 32.9068 28.7133 33.1202 28.26C33.3335 27.8067 33.4402 27.28 33.4402 26.68C33.4402 26.0933 33.3335 25.5733 33.1202 25.12C32.9068 24.6667 32.6002 24.32 32.2002 24.08C31.8135 23.8267 31.3602 23.7 30.8402 23.7C30.3202 23.7 29.8668 23.8267 29.4802 24.08C29.0935 24.32 28.7935 24.6667 28.5802 25.12C28.3668 25.5733 28.2602 26.0933 28.2602 26.68C28.2602 27.28 28.3668 27.8067 28.5802 28.26C28.7935 28.7133 29.0935 29.0667 29.4802 29.32C29.8668 29.5733 30.3202 29.7 30.8402 29.7ZM38.9466 32V20.72C38.9466 20.0533 39.0932 19.4533 39.3866 18.92C39.6799 18.3867 40.0866 17.96 40.6066 17.64C41.1266 17.32 41.7332 17.16 42.4266 17.16C42.8932 17.16 43.3332 17.24 43.7466 17.4C44.1599 17.56 44.5199 17.7667 44.8266 18.02L43.9866 20.16C43.8132 20.0533 43.6332 19.9667 43.4466 19.9C43.2732 19.8333 43.1132 19.8 42.9666 19.8C42.7132 19.8 42.5066 19.8467 42.3466 19.94C42.1866 20.02 42.0666 20.1467 41.9866 20.32C41.9066 20.48 41.8666 20.68 41.8666 20.92V32H40.4066C40.0866 32 39.8066 32 39.5666 32C39.3266 32 39.1199 32 38.9466 32ZM37.3466 24.14V21.68H44.1266V24.14H37.3466ZM46.2266 32V21.42H49.1466V32H46.2266ZM47.6666 19.26C47.1066 19.26 46.6732 19.1267 46.3666 18.86C46.0599 18.58 45.9066 18.1933 45.9066 17.7C45.9066 17.2333 46.0599 16.8533 46.3666 16.56C46.6866 16.2667 47.1199 16.12 47.6666 16.12C48.2266 16.12 48.6599 16.26 48.9666 16.54C49.2866 16.8067 49.4466 17.1933 49.4466 17.7C49.4466 18.1533 49.2866 18.5267 48.9666 18.82C48.6466 19.1133 48.2132 19.26 47.6666 19.26ZM55.3095 32.2C54.3762 32.2 53.5495 31.9667 52.8295 31.5C52.1095 31.02 51.5362 30.3733 51.1095 29.56C50.6962 28.7333 50.4895 27.78 50.4895 26.7C50.4895 25.6333 50.6962 24.6867 51.1095 23.86C51.5362 23.0333 52.1095 22.3867 52.8295 21.92C53.5629 21.44 54.3895 21.2 55.3095 21.2C55.8029 21.2 56.2762 21.2733 56.7295 21.42C57.1962 21.5667 57.6095 21.7733 57.9695 22.04C58.3295 22.3067 58.6229 22.6067 58.8495 22.94C59.0762 23.26 59.2095 23.5933 59.2495 23.94L58.5095 24.1V17.2H61.4295V32H58.6895L58.5495 29.56L59.1295 29.64C59.1029 29.9733 58.9762 30.2933 58.7495 30.6C58.5362 30.8933 58.2562 31.1667 57.9095 31.42C57.5629 31.66 57.1629 31.8533 56.7095 32C56.2562 32.1333 55.7895 32.2 55.3095 32.2ZM55.9895 29.78C56.5095 29.78 56.9629 29.6533 57.3495 29.4C57.7495 29.1333 58.0562 28.7733 58.2695 28.32C58.4962 27.8533 58.6095 27.3133 58.6095 26.7C58.6095 26.1 58.4962 25.5667 58.2695 25.1C58.0562 24.6333 57.7495 24.2733 57.3495 24.02C56.9629 23.7667 56.5095 23.64 55.9895 23.64C55.4695 23.64 55.0095 23.7667 54.6095 24.02C54.2229 24.2733 53.9229 24.6333 53.7095 25.1C53.4962 25.5667 53.3895 26.1 53.3895 26.7C53.3895 27.3133 53.4962 27.8533 53.7095 28.32C53.9229 28.7733 54.2229 29.1333 54.6095 29.4C55.0095 29.6533 55.4695 29.78 55.9895 29.78ZM68.1178 32.2C67.0378 32.2 66.0711 31.9667 65.2178 31.5C64.3645 31.02 63.6911 30.3667 63.1978 29.54C62.7178 28.7133 62.4778 27.7667 62.4778 26.7C62.4778 25.6333 62.7178 24.6867 63.1978 23.86C63.6911 23.0333 64.3645 22.3867 65.2178 21.92C66.0711 21.44 67.0378 21.2 68.1178 21.2C69.1845 21.2 70.1378 21.44 70.9778 21.92C71.8311 22.3867 72.4978 23.0333 72.9778 23.86C73.4711 24.6867 73.7178 25.6333 73.7178 26.7C73.7178 27.7667 73.4711 28.7133 72.9778 29.54C72.4978 30.3667 71.8311 31.02 70.9778 31.5C70.1378 31.9667 69.1845 32.2 68.1178 32.2ZM68.1178 29.68C68.6245 29.68 69.0778 29.5533 69.4778 29.3C69.8911 29.0333 70.2111 28.6733 70.4378 28.22C70.6645 27.7667 70.7778 27.26 70.7778 26.7C70.7778 26.1133 70.6645 25.6 70.4378 25.16C70.2111 24.7067 69.8911 24.3533 69.4778 24.1C69.0778 23.8467 68.6245 23.72 68.1178 23.72C67.5978 23.72 67.1311 23.8533 66.7178 24.12C66.3178 24.3733 65.9978 24.7267 65.7578 25.18C65.5311 25.62 65.4178 26.1267 65.4178 26.7C65.4178 27.26 65.5311 27.7667 65.7578 28.22C65.9978 28.6733 66.3178 29.0333 66.7178 29.3C67.1311 29.5533 67.5978 29.68 68.1178 29.68ZM74.8736 32V17.2H77.7936V32H74.8736ZM83.3991 32.2C82.5324 32.2 81.7457 31.96 81.0391 31.48C80.3324 31 79.7724 30.3467 79.3591 29.52C78.9457 28.6933 78.7391 27.7467 78.7391 26.68C78.7391 25.6133 78.9457 24.6667 79.3591 23.84C79.7724 23.0133 80.3391 22.3667 81.0591 21.9C81.7791 21.4333 82.5991 21.2 83.5191 21.2C84.0391 21.2 84.5124 21.2733 84.9391 21.42C85.3791 21.5667 85.7591 21.7733 86.0791 22.04C86.4124 22.3067 86.6857 22.6133 86.8991 22.96C87.1257 23.3067 87.2924 23.68 87.3991 24.08L86.7791 23.98V21.42H89.6591V32H86.7391V29.44L87.3991 29.4C87.2924 29.7733 87.1191 30.1333 86.8791 30.48C86.6391 30.8133 86.3391 31.1067 85.9791 31.36C85.6324 31.6133 85.2391 31.82 84.7991 31.98C84.3724 32.1267 83.9057 32.2 83.3991 32.2ZM84.2191 29.7C84.7391 29.7 85.1924 29.5733 85.5791 29.32C85.9791 29.0667 86.2857 28.7133 86.4991 28.26C86.7124 27.8067 86.8191 27.28 86.8191 26.68C86.8191 26.0933 86.7124 25.5733 86.4991 25.12C86.2857 24.6667 85.9791 24.32 85.5791 24.08C85.1924 23.8267 84.7391 23.7 84.2191 23.7C83.6991 23.7 83.2457 23.8267 82.8591 24.08C82.4724 24.32 82.1724 24.6667 81.9591 25.12C81.7457 25.5733 81.6391 26.0933 81.6391 26.68C81.6391 27.28 81.7457 27.8067 81.9591 28.26C82.1724 28.7133 82.4724 29.0667 82.8591 29.32C83.2457 29.5733 83.6991 29.7 84.2191 29.7ZM91.5255 32V21.42H94.3255L94.4255 24.82L93.9255 24.12C94.0855 23.5733 94.3455 23.08 94.7055 22.64C95.0655 22.1867 95.4921 21.8333 95.9855 21.58C96.4788 21.3267 96.9921 21.2 97.5255 21.2C97.7521 21.2 97.9721 21.22 98.1855 21.26C98.3988 21.2867 98.5788 21.3267 98.7255 21.38L97.9455 24.58C97.7988 24.5133 97.6055 24.4467 97.3655 24.38C97.1388 24.3133 96.8988 24.28 96.6455 24.28C96.3388 24.28 96.0521 24.34 95.7855 24.46C95.5188 24.5667 95.2855 24.7267 95.0855 24.94C94.8855 25.14 94.7255 25.38 94.6055 25.66C94.4988 25.9267 94.4455 26.2267 94.4455 26.56V32H91.5255Z" fill="white"/>
</g>
<defs>
<filter id="filter0_dddd_9_37" x="5.1842" y="39.2557" width="93.5077" height="19.2776" filterUnits="userSpaceOnUse" color-interpolation-filters="sRGB">
<feFlood flood-opacity="0" result="BackgroundImageFix"/>
<feColorMatrix in="SourceAlpha" type="matrix" values="0 0 0 0 0 0 0 0 0 0 0 0 0 0 0 0 0 0 127 0" result="hardAlpha"/>
<feOffset dy="4"/>
<feGaussianBlur stdDeviation="2"/>
<feComposite in2="hardAlpha" operator="out"/>
<feColorMatrix type="matrix" values="0 0 0 0 0 0 0 0 0 0 0 0 0 0 0 0 0 0 0.25 0"/>
<feBlend mode="normal" in2="BackgroundImageFix" result="effect1_dropShadow_9_37"/>
<feColorMatrix in="SourceAlpha" type="matrix" values="0 0 0 0 0 0 0 0 0 0 0 0 0 0 0 0 0 0 127 0" result="hardAlpha"/>
<feOffset dy="4"/>
<feGaussianBlur stdDeviation="2"/>
<feComposite in2="hardAlpha" operator="out"/>
<feColorMatrix type="matrix" values="0 0 0 0 0 0 0 0 0 0 0 0 0 0 0 0 0 0 0.25 0"/>
<feBlend mode="normal" in2="effect1_dropShadow_9_37" result="effect2_dropShadow_9_37"/>
<feColorMatrix in="SourceAlpha" type="matrix" values="0 0 0 0 0 0 0 0 0 0 0 0 0 0 0 0 0 0 127 0" result="hardAlpha"/>
<feOffset dy="4"/>
<feGaussianBlur stdDeviation="2"/>
<feComposite in2="hardAlpha" operator="out"/>
<feColorMatrix type="matrix" values="0 0 0 0 0 0 0 0 0 0 0 0 0 0 0 0 0 0 0.25 0"/>
<feBlend mode="normal" in2="effect2_dropShadow_9_37" result="effect3_dropShadow_9_37"/>
<feColorMatrix in="SourceAlpha" type="matrix" values="0 0 0 0 0 0 0 0 0 0 0 0 0 0 0 0 0 0 127 0" result="hardAlpha"/>
<feOffset dy="4"/>
<feGaussianBlur stdDeviation="2"/>
<feComposite in2="hardAlpha" operator="out"/>
<feColorMatrix type="matrix" values="0 0 0 0 0 0 0 0 0 0 0 0 0 0 0 0 0 0 0.25 0"/>
<feBlend mode="normal" in2="effect3_dropShadow_9_37" result="effect4_dropShadow_9_37"/>
<feBlend mode="normal" in="SourceGraphic" in2="effect4_dropShadow_9_37" result="shape"/>
</filter>
<filter id="filter1_dd_9_37" x="1.72" y="16.12" width="101.005" height="28.48" filterUnits="userSpaceOnUse" color-interpolation-filters="sRGB">
<feFlood flood-opacity="0" result="BackgroundImageFix"/>
<feColorMatrix in="SourceAlpha" type="matrix" values="0 0 0 0 0 0 0 0 0 0 0 0 0 0 0 0 0 0 127 0" result="hardAlpha"/>
<feOffset dy="4"/>
<feGaussianBlur stdDeviation="2"/>
<feComposite in2="hardAlpha" operator="out"/>
<feColorMatrix type="matrix" values="0 0 0 0 0 0 0 0 0 0 0 0 0 0 0 0 0 0 0.25 0"/>
<feBlend mode="normal" in2="BackgroundImageFix" result="effect1_dropShadow_9_37"/>
<feColorMatrix in="SourceAlpha" type="matrix" values="0 0 0 0 0 0 0 0 0 0 0 0 0 0 0 0 0 0 127 0" result="hardAlpha"/>
<feOffset dy="4"/>
<feGaussianBlur stdDeviation="2"/>
<feComposite in2="hardAlpha" operator="out"/>
<feColorMatrix type="matrix" values="0 0 0 0 0 0 0 0 0 0 0 0 0 0 0 0 0 0 0.25 0"/>
<feBlend mode="normal" in2="effect1_dropShadow_9_37" result="effect2_dropShadow_9_37"/>
<feBlend mode="normal" in="SourceGraphic" in2="effect2_dropShadow_9_37" result="shape"/>
</filter>
</defs>
</svg>
