<svg width="14" height="14" viewBox="0 0 14 14" fill="none" xmlns="http://www.w3.org/2000/svg">
<path d="M5.5 13.5V9.99499C5.5 9.74999 5.75 9.49999 6 9.49999H8C8.25 9.49999 8.5 9.74999 8.5 9.99999V13.5C8.5 13.6326 8.55268 13.7598 8.64645 13.8535C8.74022 13.9473 8.86739 14 9 14H13C13.1326 14 13.2598 13.9473 13.3536 13.8535C13.4473 13.7598 13.5 13.6326 13.5 13.5V6.49999C13.5001 6.43429 13.4873 6.3692 13.4622 6.30846C13.4372 6.24772 13.4004 6.19251 13.354 6.14599L12 4.79299V1.49999C12 1.36739 11.9473 1.24021 11.8536 1.14644C11.7598 1.05267 11.6326 0.999994 11.5 0.999994H10.5C10.3674 0.999994 10.2402 1.05267 10.1464 1.14644C10.0527 1.24021 10 1.36739 10 1.49999V2.79299L7.354 0.145994C7.30756 0.0994303 7.25238 0.0624874 7.19163 0.037281C7.13089 0.0120745 7.06577 -0.000900269 7 -0.000900269C6.93423 -0.000900269 6.86911 0.0120745 6.80837 0.037281C6.74762 0.0624874 6.69245 0.0994303 6.646 0.145994L0.646001 6.14599C0.599599 6.19251 0.562821 6.24772 0.537769 6.30846C0.512717 6.3692 0.499883 6.43429 0.500001 6.49999V13.5C0.500001 13.6326 0.552679 13.7598 0.646447 13.8535C0.740216 13.9473 0.867393 14 1 14H5C5.13261 14 5.25979 13.9473 5.35355 13.8535C5.44732 13.7598 5.5 13.6326 5.5 13.5Z" fill="white"/>
</svg>
